<svg width="24" height="24" viewBox="0 0 24 24" fill="none" xmlns="http://www.w3.org/2000/svg">
<path d="M5.616 20C5.15533 20 4.771 19.846 4.463 19.538C4.155 19.23 4.00067 18.8453 4 18.384V5.616C4 5.15533 4.15433 4.771 4.463 4.463C4.77167 4.155 5.156 4.00067 5.616 4H18.385C18.845 4 19.2293 4.15433 19.538 4.463C19.8467 4.77167 20.0007 5.156 20 5.616V18.385C20 18.845 19.846 19.2293 19.538 19.538C19.23 19.8467 18.8453 20.0007 18.384 20H5.616ZM5.616 19H18.385C18.5383 19 18.6793 18.936 18.808 18.808C18.9367 18.68 19.0007 18.5387 19 18.384V5.616C19 5.462 18.936 5.32067 18.808 5.192C18.68 5.06333 18.5387 4.99933 18.384 5H5.616C5.462 5 5.32067 5.064 5.192 5.192C5.06333 5.32 4.99933 5.46133 5 5.616V18.385C5 18.5383 5.064 18.6793 5.192 18.808C5.32 18.9367 5.461 19.0007 5.615 19M8.308 16.5H15.846C16.008 16.5 16.126 16.4277 16.2 16.283C16.274 16.1383 16.264 15.995 16.17 15.853L14.15 13.141C14.0633 13.033 13.9557 12.979 13.827 12.979C13.699 12.979 13.5913 13.033 13.504 13.141L11.212 16.039L9.785 14.314C9.69767 14.2187 9.593 14.171 9.471 14.171C9.34967 14.171 9.24533 14.225 9.158 14.333L8.004 15.853C7.896 15.995 7.87933 16.1383 7.954 16.283C8.02867 16.4277 8.14667 16.5 8.308 16.5Z" fill="white"/>
</svg>
